<?xml version="1.0"?>
<svg xmlns="http://www.w3.org/2000/svg" id="Layer_2" height="512px" viewBox="0 0 128 128" width="512px" data-name="Layer 2" class=""><g><path d="m96.86 16.473a10.741 10.741 0 0 0 -19.426-6.329 14.947 14.947 0 0 0 -26.868 0 10.743 10.743 0 1 0 -12.585 16.335l.519 10.521h51l.519-10.521a10.745 10.745 0 0 0 6.841-10.006z" fill="#efebe9" data-original="#EFEBE9" class=""/><path d="m59.753 101.378h.132l-19.635-9.613-7.762.763a20.041 20.041 0 0 0 -18.081 19.945v13.777h35.346v-14.872a10 10 0 0 1 10-10z" fill="#efebe9" data-original="#EFEBE9" class=""/><path d="m68.115 101.378v-9.753l9.056-3.925a6.253 6.253 0 0 1 -.576-1.917l-.98-7.663a19.527 19.527 0 0 1 -23.23 0l-.98 7.663a6.253 6.253 0 0 1 -.576 1.917l9.056 3.922v9.753z" fill="#fcd2ae" data-original="#FCD2AE" class=""/><path d="m41.641 47.07v2.617a19.856 19.856 0 0 0 .447 4.177l1.349 6.157 1.421 6.519c.125.559.269 1.1.434 1.644s.355 1.06.565 1.579a19.6 19.6 0 0 0 36.286 0c.21-.519.4-1.046.565-1.579s.309-1.085.434-1.644l1.421-6.519 1.349-6.157a19.856 19.856 0 0 0 .447-4.177v-2.617z" fill="#fcd2ae" data-original="#FCD2AE" class=""/><path d="m42.09 53.863a19.576 19.576 0 0 1 -.451-4.179v-1.167a6.083 6.083 0 1 0 1.8 11.506z" fill="#fcd2ae" data-original="#FCD2AE" class=""/><path d="m64.223 61.34h1.749a1.75 1.75 0 0 0 0-3.5h-1.461l.592-3.9a1.75 1.75 0 1 0 -3.461-.524l-.635 4.184a3.253 3.253 0 0 0 3.216 3.739z" fill="#a1887f" data-original="#A1887F"/><path d="m58.08 49.552a3.91 3.91 0 1 0 -3.909 3.909 3.914 3.914 0 0 0 3.909-3.909z" fill="#a1887f" data-original="#A1887F"/><path d="m72.575 45.642a3.91 3.91 0 1 0 3.909 3.91 3.914 3.914 0 0 0 -3.909-3.91z" fill="#a1887f" data-original="#A1887F"/><path d="m68.5 65.083a6.87 6.87 0 0 1 -9.231 0 1.75 1.75 0 1 0 -2.7 2.226 9.457 9.457 0 0 0 7.317 3.056 9.458 9.458 0 0 0 7.314-3.056 1.75 1.75 0 1 0 -2.7-2.226z" fill="#a1887f" data-original="#A1887F"/><path d="m86.965 48.454a5.5 5.5 0 0 0 -.606.046v1.187a19.856 19.856 0 0 1 -.447 4.177l-1.349 6.157-.018.086a6.016 6.016 0 0 0 2.42.517 6.085 6.085 0 0 0 0-12.17z" fill="#fcd2ae" data-original="#FCD2AE" class=""/><path d="m89.5 37h-51v6a4 4 0 0 0 4 4h43a4 4 0 0 0 4-4z" fill="#a1887f" data-original="#A1887F"/><path d="m59.885 91.625v9.753l-19.635-9.613 3.185-7.265z" fill="#4570a1" data-original="#4570A1" class="active-path" style="fill:#EA7169" data-old_color="#4570a1"/><path d="m68.115 91.625v9.753l19.635-9.613-3.185-7.265z" fill="#4570a1" data-original="#4570A1" class="active-path" style="fill:#EA7169" data-old_color="#4570a1"/><path d="m49.753 126.25h63.84v-13.777a20.041 20.041 0 0 0 -18.081-19.945l-7.762-.763-19.635 9.613h-8.362a10 10 0 0 0 -10 10z" fill="#efebe9" data-original="#EFEBE9" class=""/><path d="m66.5 111.667h-7.566a1.75 1.75 0 0 1 0-3.5h7.566a1.75 1.75 0 0 1 0 3.5z" fill="#4570a1" data-original="#4570A1" class="active-path" style="fill:#EA7169" data-old_color="#4570a1"/><path d="m66.5 120.205h-7.566a1.75 1.75 0 0 1 0-3.5h7.566a1.75 1.75 0 0 1 0 3.5z" fill="#4570a1" data-original="#4570A1" class="active-path" style="fill:#EA7169" data-old_color="#4570a1"/><g fill="#271800"><path d="m63.635 51.944a1.751 1.751 0 0 0 -1.993 1.469l-.635 4.187a3.253 3.253 0 0 0 3.216 3.739h1.749a1.75 1.75 0 0 0 0-3.5h-1.461l.592-3.9a1.751 1.751 0 0 0 -1.468-1.995z" data-original="#271800" class="" style="fill:#271800"/><path d="m59.272 65.082a1.75 1.75 0 1 0 -2.7 2.226 9.457 9.457 0 0 0 7.317 3.056 9.458 9.458 0 0 0 7.311-3.055 1.75 1.75 0 1 0 -2.7-2.226 6.87 6.87 0 0 1 -9.231 0z" data-original="#271800" class="" style="fill:#271800"/><path d="m95.683 90.786-6.742-.663-2.774-6.323a1.751 1.751 0 0 0 -2.3-.9l-5.567 2.407-.82-6.412a21.093 21.093 0 0 0 3.512-3.614 1.75 1.75 0 0 0 -2.785-2.12 17.735 17.735 0 0 1 -3.607 3.539 18.31 18.31 0 0 1 -10.128 3.49c-4.2.127-7.679-1.413-11.178-3.553a17.782 17.782 0 0 1 -5.811-7.535 18.722 18.722 0 0 1 -.912-2.939l-1.422-6.511c-.741-3.613-1.754-7.117-1.754-10.836h6.944a3.91 3.91 0 1 0 7.671 0h10.729a3.91 3.91 0 1 0 7.671 0h8.2c0 3.75-1.019 7.284-1.774 10.929l-1.4 6.418a1.75 1.75 0 0 0 3.42.746l1.011-4.63a7.512 7.512 0 0 0 1.1.091 7.831 7.831 0 0 0 2.524-15.24 5.731 5.731 0 0 0 1.759-4.13v-5.953l.464-9.407a12.493 12.493 0 1 0 -13.975-20.432 16.7 16.7 0 0 0 -27.478 0 12.491 12.491 0 1 0 -13.975 20.432l.464 9.407v5.953a5.734 5.734 0 0 0 1.7 4.072 7.834 7.834 0 0 0 2.367 15.3 7.72 7.72 0 0 0 1.317-.125l1.02 4.673a22.31 22.31 0 0 0 1.088 3.5 21.292 21.292 0 0 0 6.282 8.5l-.824 6.387-5.57-2.413a1.751 1.751 0 0 0 -2.3.9l-2.774 6.326-6.742.663a21.717 21.717 0 0 0 -19.66 21.688v13.779a1.75 1.75 0 0 0 1.75 1.75h57.196a1.75 1.75 0 0 0 0-3.5h-20.1v-13.122a8.261 8.261 0 0 1 8.25-8.25h8.362a1.781 1.781 0 0 0 .375-.042c.032-.007.062-.02.093-.029a1.673 1.673 0 0 0 .263-.093c.012-.006.026-.008.039-.014l19.189-9.395 7.266.714a18.23 18.23 0 0 1 16.5 18.2v12.031h-7.968v-7.25a1.75 1.75 0 0 0 -3.5 0v7.25h-6.702a1.75 1.75 0 0 0 0 3.5h19.926a1.75 1.75 0 0 0 1.75-1.75v-13.776a21.717 21.717 0 0 0 -19.66-21.688zm-55.433-52.036h47.5v4.25a2.252 2.252 0 0 1 -2.25 2.25h-43a2.252 2.252 0 0 1 -2.25-2.25zm51.05 15.789a4.352 4.352 0 0 1 -4.687 4.319 47.1 47.1 0 0 0 1.487-8.5 4.344 4.344 0 0 1 3.2 4.181zm-58.41-38.066a9.01 9.01 0 0 1 9-9 8.915 8.915 0 0 1 7.263 3.7 1.75 1.75 0 0 0 2.984-.262 13.2 13.2 0 0 1 23.726 0 1.75 1.75 0 0 0 2.984.262 8.915 8.915 0 0 1 7.263-3.7 9 9 0 0 1 3.272 17.376 1.751 1.751 0 0 0 -1.111 1.544l-.437 8.857h-10.934l2.134-8.75a1.751 1.751 0 0 0 -3.4-.831l-2.342 9.581h-7.542v-10.917a1.75 1.75 0 0 0 -3.5 0v10.917h-7.542l-2.341-9.582a1.751 1.751 0 0 0 -3.4.831l2.133 8.751h-10.934l-.437-8.857a1.751 1.751 0 0 0 -1.111-1.544 8.944 8.944 0 0 1 -5.728-8.376zm7.922 42.4a4.335 4.335 0 0 1 -.912-8.573 46.79 46.79 0 0 0 1.485 8.534 4.181 4.181 0 0 1 -.573.04zm44.662 32.058-15.609 7.642v-5.8l8-3.465 5.797-2.508zm-32.333-4.923.627-4.909a21.341 21.341 0 0 0 20.461-.016l.63 4.924q.048.369.13.733l-7.569 3.279a1.75 1.75 0 0 0 -1.055 1.606v8h-4.73v-8a1.75 1.75 0 0 0 -1.055-1.606l-7.569-3.279q.083-.364.13-.732zm-8.8.79 5.793 2.509 8 3.465v5.8l-15.608-7.641zm3.659 24.58v13.122h-20.375v-7.25a1.75 1.75 0 0 0 -3.5 0v7.25h-7.968v-12.026a18.23 18.23 0 0 1 16.5-18.2l7.267-.714 14.776 7.228a11.753 11.753 0 0 0 -6.7 10.59z" data-original="#271800" class="" style="fill:#271800"/><path d="m83.813 124.5h-2.355a1.75 1.75 0 0 0 0 3.5h2.355a1.75 1.75 0 0 0 0-3.5z" data-original="#271800" class="" style="fill:#271800"/><path d="m66.5 108.167h-7.566a1.75 1.75 0 0 0 0 3.5h7.566a1.75 1.75 0 0 0 0-3.5z" data-original="#271800" class="" style="fill:#271800"/><path d="m66.5 116.705h-7.566a1.75 1.75 0 0 0 0 3.5h7.566a1.75 1.75 0 0 0 0-3.5z" data-original="#271800" class="" style="fill:#271800"/></g></g> </svg>
