<svg xmlns="http://www.w3.org/2000/svg" viewBox="0 0 250 250"><g transform="matrix(0.625,0,0,0.625,0,0)"><g transform="matrix(2,0,0,2,0,0)"><g fill="#a0352f" fill-rule="evenodd"><path d="M55.06 77.85a1.52 1.52 0 0 0 1.17.05.17.17 0 0 0 0-.33 4.29 4.29 0 0 1-1.9-1.6.17.17 0 0 0-.33.03 1.77 1.77 0 0 0 1.06 1.85zm75.25-24.41c-9 1.17-14.92 2-14.92 2-.16 0-.1.16-.1.32v44.44c0 .08.25.15.34.16 7.41.84 18.33 1.68 29.52 2.43 7.6.5 44.35 2.48 44.35 2.48a.41.41 0 0 0 .28-.11.37.37 0 0 0 .13-.28c.06-3.75.78-57.21.78-57.21a.42.42 0 0 0-.13-.3.43.43 0 0 0-.31-.12c-11.81.74-25.28 2.06-37.51 3.44-8.36.97-16.15 1.93-22.43 2.75zm59.55-5.3-.74 56.35c-1.94-.08-36.33-1.78-43.94-2.23-11.11-.66-22-1.41-29.39-2.18v-44c1.64-.23 36.54-4.55 44.53-5.38 9.91-1.04 20.22-1.98 29.54-2.56z"></path><path d="M131.56 76.87a19.12 19.12 0 0 0 5.51 13.51 18.88 18.88 0 0 0 26.93 0 19.1 19.1 0 0 0 3.95-21 7.13 7.13 0 1 0-7-8.35 19 19 0 0 0-29.38 15.83zm34.52-16.13 1.19 2.7 2.44-6.16 1.36.85-2.82 7.62-2 .19-1.68-3.67zm-15.55-2.44a17.93 17.93 0 0 1 10.33 3.31v.66a7.12 7.12 0 0 0 6.37 7.08 18.53 18.53 0 0 1-3.78 20.46 18.11 18.11 0 0 1-25.77 0 18.54 18.54 0 0 1-.09-25.95 18.11 18.11 0 0 1 12.94-5.56z"></path><path d="m139.83 69.58 3.35.09c.06.47 2 13.33 2 13.33a.41.41 0 0 0 .4.35l11.62-.25a.17.17 0 0 0 0-.33s-5.81-.19-7-.21h-4.3c-.06-.41-.18-1.16-.33-2.11 1 0 10.64-.24 10.64-.24a.4.4 0 0 0 .39-.35l1-7.08a.42.42 0 0 0-.1-.32.41.41 0 0 0-.31-.14s-12 .27-12.91.31c-.61-3.39-.57-3.48-.89-3.48l-3.6.13a.17.17 0 1 0 0 .34zm12.93 9.59v.38c-.32 0-3.09.2-4.08.28a17.77 17.77 0 0 0-.26-3.07l4.45-.1a15.08 15.08 0 0 0-.11 2.51zm1.14-5.5v-.57h2.87l-.4 2.9h-.84c-.48 0-1.08-.05-1.74-.06a17.83 17.83 0 0 0 .11-2.27zm-.19 3c.7-.05 1.33-.11 1.83-.16l.77-.08-.41 3-2.69.14c0-.09 0-.19.07-.3a17.19 17.19 0 0 0 .43-2.65zm-.26-3.52a18.37 18.37 0 0 0-.49 2.76l-4.65.13a19.58 19.58 0 0 0-.65-3c2.15.03 3.64.05 5.79.06zm-5.17 6.76-2.71.2c-.17-1-.36-2.19-.56-3.4l1.09.06h1.5a18.48 18.48 0 0 0 .68 3.09zm-1-6.85a19.82 19.82 0 0 0 .25 3l-1.4.12-1.15.11c-.08-.51-.46-2.74-.56-3.32.5.03 1.58.03 2.82.03z"></path><path d="M194.87 43.19a.42.42 0 0 0-.31-.11c-13.14.85-28.13 2.36-41.74 3.94-9.31 1.08-41.57 5.43-41.57 5.43-.16 0-.08.16-.08.32v50.93c0 .08.26.15.35.16 8.13.94 20.08 1.89 32.36 2.73.26 1 1.35 5 1.88 8.08a14 14 0 0 1 .27 2.84.89.89 0 0 1-.12.49c-1 1-6.69 2.75-6.86 2.82a.38.38 0 0 0-.27.4l.16 1.94a.37.37 0 0 0 .34.35c23.39 3.12 22 3.07 22.21 3a47.17 47.17 0 0 0 5.92-3 8.35 8.35 0 0 0 1.61-1.29 1.58 1.58 0 0 0 .47-1 27.38 27.38 0 0 0-1-4.2c-1-3.37-2.39-7.7-2.83-9l28.06 1.49a.36.36 0 0 0 .29-.11.36.36 0 0 0 .12-.28c.07-4.3.87-65.56.87-65.56a.44.44 0 0 0-.13-.37zm-44.49 81-10.69-1.44-.11-1.31h.09c.83.12 7.05.92 8.29 1.06 2.69.3 12.35 1.27 13 1.33a3.93 3.93 0 0 0 0 1.84zm17.52-7.06a25 25 0 0 1 .88 4 .83.83 0 0 1-.29.49 8 8 0 0 1-1.49 1.14 44.9 44.9 0 0 1-5.33 2.71 4.18 4.18 0 0 0-.14-1.78c.52-.22 2.31-1 3.91-1.77a17.15 17.15 0 0 0 2.61-1.47.16.16 0 0 0 0-.23.17.17 0 0 0-.24 0 12.83 12.83 0 0 1-1.95 1c-1.83.79-4.21 1.68-4.7 1.86-.44 0-19.67-1.9-20.62-2 6-2.09 6-2.67 6.09-3.57a14.3 14.3 0 0 0-.35-3c-.58-3-1.73-6.8-2.08-8l21.45 1.49h-.35c.35 1.11 1.7 5.65 2.6 9.15zm25.45-8.51c-2.07-.09-40.48-2-48.95-2.57-12.37-.77-24.49-1.63-32.73-2.52V53.06c1.75-.25 40.68-5.22 49.57-6.18 11-1.19 22.55-2.28 32.93-2.94z"></path><path d="M161.27 118.22c-.54 0-7.81-.36-8.48-.37s-4.25 0-4.25 0a.17.17 0 0 0-.18.16.17.17 0 0 0 .16.17c.43 0 5.95.69 12.72.78h4.25a.15.15 0 0 0 .17-.15.17.17 0 0 0-.16-.18s-3.25-.33-4.23-.41zm17.96-37.72 1.09 2 .87-.63-1.05-1.81 1.63-.79-4.36-3.85.25 5.84 1.57-.76zm-4.88 5.96a.16.16 0 0 0 .08.22 12.45 12.45 0 0 0 1.08.7c.42.24 1.38.67 1.83.85.27.11 1.82.68 1.94.42a.16.16 0 0 0-.08-.22l-.43-.3a13.36 13.36 0 0 0-3.57-1.6c-.39-.11-.63-.15-.63-.15a.17.17 0 0 0-.22.08zm-3.92 8.7a6.22 6.22 0 0 0-2.36-2.22.16.16 0 1 0-.23.23 3.33 3.33 0 0 0 .23.41 6.27 6.27 0 0 0 2.31 2.14.15.15 0 0 0 .23 0 .17.17 0 0 0 0-.23zm-42.16-12.65a.18.18 0 0 0-.23-.06 20.42 20.42 0 0 0-5.75 3.29.18.18 0 0 0-.06.23.17.17 0 0 0 .23.06 21.08 21.08 0 0 0 5.75-3.29.18.18 0 0 0 .06-.23zm4.73 8.23a15.32 15.32 0 0 0-2.67 2c-3.09 2.69-2.29 2.75-2.12 2.59 0 0 .28-.16.71-.45a22.86 22.86 0 0 0 4.31-3.88.16.16 0 0 0-.21-.25zm15.61 45.5A9.34 9.34 0 0 0 146 135a1.29 1.29 0 0 0-.2-.47 2.19 2.19 0 0 0-.66-.59 7.28 7.28 0 0 0-2.86-.91 7.53 7.53 0 0 0-3.7.47c-1.88.78-6.49 3.61-11.63 5.45a24 24 0 0 1-8.26 1.62 56.8 56.8 0 0 0-11.47 1.23c-4.91 1-9.3 2.32-10.87 3.29l-3.13-4.56h.09a11.78 11.78 0 0 0 2-1 3.78 3.78 0 0 0 1.19-1 .23.23 0 0 0 0-.24.27.27 0 0 0-.16-.13A1.52 1.52 0 0 0 96 138a33.46 33.46 0 0 0-3.7.06 97.55 97.55 0 0 0-10.16-19.15 87.46 87.46 0 0 0-8-10.07c1.16-2.18 2.47-4.77 4.69-9.74a5.41 5.41 0 0 0 3-4.23c1.2.46 2-1.26 2.25-2.64 1.54.6 4.32 1.66 5.89 2.16a4 4 0 0 0 .79.2c1.07 0 5-5.75 5.7-7a2.68 2.68 0 0 0 .38-1.09.84.84 0 0 0-.39-.64c-1.54-1.18-8.34-2.74-10.93-3.13-2.24-.33-2.17-.25-3.54 1.49-.52.66-1.09 1.44-1.58 2.12a12.45 12.45 0 0 0-2.69.39c-3.06.8-4 1.9-4.52 3.77a14.43 14.43 0 0 0-.59 4.5c-2.48 2.45-4.32 4.39-6.29 6.52a84.37 84.37 0 0 0-16.77-10.9l.6-4c3.44 0 8.19-1 9.41-4.23a29.42 29.42 0 0 0 1.28-4.9c.39-2.19.55-4.1.6-4.76l1.94-.91a.39.39 0 0 0 .21-.46s-2.41-9-2.56-9.62c1.25-.28 2.18-.54 2.18-.54 0-16-15-19.35-15-19.35s4.74-6 5.3-9.88-4.2-5.18-10.45-3.51-2.17 12.69-2.17 12.69c-2.85-.63-8.23 2.59-8.23 2.59-4-20.85-14.95-12.1-16-5.93s12.85 7.58 12.85 7.58c-9.31 3.9-12.58 35.36-12.58 35.36 2.14 1.65 6.4 2.66 11 3.27a53.27 53.27 0 0 0-19.1 24.62 56.49 56.49 0 0 0-3.35 13.3 72.33 72.33 0 0 0 2 27.19 108.11 108.11 0 0 0 6 17.19.16.16 0 1 0 .3-.13A110.4 110.4 0 0 1 8 149a72.64 72.64 0 0 1-1.78-27 56.44 56.44 0 0 1 3.35-13.11A52.29 52.29 0 0 1 28.7 84.53c16.23 2.28 38.37 14 52.93 34.73a97.64 97.64 0 0 1 10.31 19 65.41 65.41 0 0 1-12 8.76 57.51 57.51 0 0 1-6.72 3.28 44.21 44.21 0 0 1-7.1 2.26C64.32 150 55.63 135 55.56 134.92a.16.16 0 0 0-.22-.07.16.16 0 0 0-.07.23s.4.88 1.08 2.27c2.3 4.69 6.08 11.43 9.47 15.41-1 1.61-2.74 5.2-.84 5.05 1.19-.09 2.68-1.61 3-1.8a69.7 69.7 0 0 0 15.46 12.33c4.06 2.26 8.51 3.91 12.86 4h.06c5.83-1 12-4.28 17.72-8.35 9.71-6.91 18.19-16 21.85-19.69a19.12 19.12 0 0 1 1.93-1.69 20.8 20.8 0 0 0 3.31.31 15.36 15.36 0 0 0 2.49-.16 9.75 9.75 0 0 0 4-1.39 6.31 6.31 0 0 0 1.69-1.51 2.46 2.46 0 0 0 .54-1.57 2.12 2.12 0 0 0-.3-1 3.43 3.43 0 0 0-.98-1.05zM33 84.54c7.16.55 13.79.39 13.79.39-.36-2.38-3.58-13.76-3.58-13.76-2.51.2-4.71-1.6-3.16-5.09s5.17-1 5.17-1a19.44 19.44 0 0 0 7.9-5.08 6.2 6.2 0 0 0 1.4 2.24c.64.65 3.8.09 6.12-.42.16.88.43 2.19.73 3.55.22 1.05 1.23 5.36 1.35 5.86l-1.88.77c-.46.21 0 .56-.86 5.25a29.17 29.17 0 0 1-1.22 4.76A5 5 0 0 1 56 84.69 17.84 17.84 0 0 1 49.87 86a.27.27 0 0 0-.28.25l-1.05 3.89A71.92 71.92 0 0 0 33 84.54zm49 9.66c-.5 0 .23-2.42.26-2.57l1.29.5c-.19.69-.77 2.06-1.55 2.07zm1.53-10.94c2.43.11 11.2 2.31 12.29 3.34-.21 1.05-3.43 5.29-4.66 6.62-.8.85 1 1.29-11.17-2.86.62-.94 1.57-2.62.51-3a.86.86 0 0 0-.46 0 34.68 34.68 0 0 1 3.53-4.1zm-2.07 8c-.17.57-.43 2.25-.94 2s-.3-1.72-.07-2.39zm-13.87 11.37-1-.85c.58-.52 4-3.65 4.31-4 1.32-1.27 2.41-2.34 2.41-2.34a.41.41 0 0 0 .12-.33 14.44 14.44 0 0 1 .4-4.38 3.82 3.82 0 0 1 1.45-2.28 12.27 12.27 0 0 1 4.72-1.7l-.55.78c-2 1.08-4.48 4.65-4.56 4.75a.16.16 0 1 0 .25.21c.38-.36 4.54-4.61 5.09-4.39s-3 4.82-2.67 5.09 2.09-2.25 2.28-2.54l.33.13c-.56 1.09-1 2.58.08 3.19a.89.89 0 0 0 .86 0 1.47 1.47 0 0 0 .23.61 4.91 4.91 0 0 1-1.7 2.95c-2 1.77-.76-1.16-4.34 7.24-.32.74-.61 1.46-.86 2.08s-.52 1.31-.66 1.68a85.27 85.27 0 0 0-6.19-5.9zm-2.29 54.25a1.27 1.27 0 0 1-.38.11 12.85 12.85 0 0 1 1.52-3.71A45.56 45.56 0 0 0 73.5 151a55.41 55.41 0 0 0 6.76-3.42 63.82 63.82 0 0 0 11.95-9.13 30.36 30.36 0 0 1 3.68 0 5.91 5.91 0 0 1-.91.63 11.26 11.26 0 0 1-1.91.89 1.26 1.26 0 0 0-.87.68c-.23.59.24 1.11-.35 2-.8 1.17-1.91.53-3.31.86-1.67.39-1 3-2 3.86s-3.06-.66-4 .74c-.52.79-.26 2.08-.72 2.8s-2.85-1.28-4.26.16a19.44 19.44 0 0 0-1.25 2.2c-.69 1.06-1.7-.24-3-.31-2.4-.12-.49 5.56-3.71 3a5.7 5.7 0 0 0-1-.68c-1.16-.65-1.51.85-3.3 1.6zm70-13.21c-3.64 3.64-12.08 12.73-21.72 19.65-5.61 4-11.63 7.31-17.36 8.32-4.24 0-8.59-1.62-12.56-3.78a69.73 69.73 0 0 1-15.16-11.77 7 7 0 0 1 .73.53c3.83 3 3.38-2.89 4.18-2.85 1.46.07 2.67 2.35 4.43-1.43a2.59 2.59 0 0 1 .43-.72c1.07-1.1 3.34 1.3 4.35-.3.68-1.09.21-2.88 1-3s1.51.28 2.35.15c2.66-.39 1.43-4 2.75-4.31a6.25 6.25 0 0 1 1.51-.13 3.09 3.09 0 0 0 1.15-.19 2.19 2.19 0 0 0 1-.85c.67-1 .24-1.74.37-2.11a.25.25 0 0 1 .1-.12l3.27 4.95a.17.17 0 0 0 .12.08.2.2 0 0 0 .15 0c1.39-.94 5.88-2.39 10.91-3.33a57.27 57.27 0 0 1 11.36-1.24 24.41 24.41 0 0 0 8.51-1.59c5.16-1.81 9.8-4.61 11.69-5.38a6.75 6.75 0 0 1 3.31-.41 7.18 7.18 0 0 1 2.25.64 1.82 1.82 0 0 1 .68.5.67.67 0 0 1 .08.18h-.2a4.19 4.19 0 0 0-1-.32 11.36 11.36 0 0 0-4.12 0 .4.4 0 0 0 .12.8 15.45 15.45 0 0 1 2.91-.13h.52a4.43 4.43 0 0 1 .6.14 2.22 2.22 0 0 1 1.3.84 11.76 11.76 0 0 0-4.86.27h-.12a.42.42 0 0 0 .19.81h.14a17 17 0 0 1 3.11-.38h.73a4.41 4.41 0 0 1 .92.18 1.4 1.4 0 0 1 .3.15.44.44 0 0 0 .16.06.81.81 0 0 1 .41.53l-.13.06a3.4 3.4 0 0 1-.55.16 22.64 22.64 0 0 0-5 1.5 18 18 0 0 0-5.28 3.84zm13.38-4.4a5.5 5.5 0 0 1-1.54 1.37 9.43 9.43 0 0 1-3.65 1.3 18.74 18.74 0 0 1-2.39.26 26.36 26.36 0 0 1-2.81 0c.54-.38 1.06-.7 1.57-1a24.05 24.05 0 0 1 6.49-2.15c.61-.2.83-.53.79-.92a1.61 1.61 0 0 0-.8-1.19 2.28 2.28 0 0 0-.66-1.26l.12-.12a.92.92 0 0 0 .13-.24 11.41 11.41 0 0 1 1.5.82 4.37 4.37 0 0 1 1.44 1.43 1.5 1.5 0 0 1-.16 1.7z"></path><path d="M81.49 88.74a54.8 54.8 0 0 0 9 3c2.84.67.79-.54-5-2.35-2.09-.65-3.67-1-3.82-1a.17.17 0 1 0-.1.32zm4.42-3.91-2.09-.5-.89.95 2.31.61.67-1.06zM147 85c-.52 0-.94.58-.94 1.3s.42 1.29.94 1.29.93-.58.93-1.29-.38-1.3-.93-1.3zm9.08 0c-.52 0-.94.58-.94 1.3s.42 1.29.94 1.29.93-.58.93-1.29-.42-1.3-.93-1.3zm-98.7-16.21a.65.65 0 0 0 .66-.68c0-.46 0-.91.05-1.37a.73.73 0 0 0-.6-.79c-.88-.12-.77 1.11-.77 2.1a.73.73 0 0 0 .66.74z"></path></g></g></g></svg>