<svg xmlns="http://www.w3.org/2000/svg" xmlns:xlink="http://www.w3.org/1999/xlink" version="1.1" width="256" height="256" viewBox="0 0 256 256" xml:space="preserve">

<defs>
</defs>
<g style="stroke: none; stroke-width: 0; stroke-dasharray: none; stroke-linecap: butt; stroke-linejoin: miter; stroke-miterlimit: 10; fill: none; fill-rule: nonzero; opacity: 1;" transform="translate(1.4065934065934016 1.4065934065934016) scale(2.81 2.81)" >
	<path d="M 45 78.931 c -19.375 0 -35.137 -15.763 -35.137 -35.137 C 9.863 24.419 25.625 8.657 45 8.657 c 0.552 0 1 0.448 1 1 s -0.448 1 -1 1 c -18.271 0 -33.137 14.865 -33.137 33.137 S 26.729 76.931 45 76.931 s 33.137 -14.865 33.137 -33.137 c 0 -5.176 -1.16 -10.133 -3.447 -14.732 c -0.246 -0.495 -0.044 -1.095 0.45 -1.341 c 0.494 -0.245 1.096 -0.044 1.341 0.45 c 2.426 4.879 3.656 10.135 3.656 15.623 C 80.137 63.168 64.374 78.931 45 78.931 z" style="stroke: none; stroke-width: 1; stroke-dasharray: none; stroke-linecap: butt; stroke-linejoin: miter; stroke-miterlimit: 10; fill: rgb(0,0,0); fill-rule: nonzero; opacity: 1;" transform=" matrix(1 0 0 1 0 0) " stroke-linecap="round" />
	<path d="M 45 88.794 c -24.813 0 -45 -20.187 -45 -45 c 0 -0.552 0.448 -1 1 -1 s 1 0.448 1 1 c 0 23.71 19.29 43 43 43 c 23.71 0 43 -19.29 43 -43 c 0 -12.991 -5.784 -25.151 -15.87 -33.362 c -0.428 -0.349 -0.492 -0.979 -0.144 -1.407 c 0.348 -0.427 0.979 -0.494 1.407 -0.144 C 83.947 17.474 90 30.199 90 43.794 C 90 68.607 69.813 88.794 45 88.794 z" style="stroke: none; stroke-width: 1; stroke-dasharray: none; stroke-linecap: butt; stroke-linejoin: miter; stroke-miterlimit: 10; fill: rgb(248,204,29); fill-rule: nonzero; opacity: 1;" transform=" matrix(1 0 0 1 0 0) " stroke-linecap="round" />
	<path d="M 68.635 3.889 h -1.682 V 2.206 c 0 -0.552 -0.447 -1 -1 -1 s -1 0.448 -1 1 v 1.683 h -1.683 c -0.553 0 -1 0.448 -1 1 s 0.447 1 1 1 h 1.683 v 1.682 c 0 0.552 0.447 1 1 1 s 1 -0.448 1 -1 V 5.889 h 1.682 c 0.553 0 1 -0.448 1 -1 S 69.188 3.889 68.635 3.889 z" style="stroke: none; stroke-width: 1; stroke-dasharray: none; stroke-linecap: butt; stroke-linejoin: miter; stroke-miterlimit: 10; fill: rgb(248,204,29); fill-rule: nonzero; opacity: 1;" transform=" matrix(1 0 0 1 0 0) " stroke-linecap="round" />
	<path d="M 63.816 16.145 c -0.461 -0.304 -1.082 -0.171 -1.384 0.291 L 45.569 42.297 c -0.883 -0.185 -1.839 0.062 -2.525 0.747 c -1.08 1.08 -1.08 2.831 0 3.911 c 1.08 1.08 2.831 1.08 3.911 0 c 0.971 -0.971 1.061 -2.481 0.285 -3.562 l 16.867 -25.865 C 64.41 17.066 64.279 16.446 63.816 16.145 z" style="stroke: none; stroke-width: 1; stroke-dasharray: none; stroke-linecap: butt; stroke-linejoin: miter; stroke-miterlimit: 10; fill: rgb(0,0,0); fill-rule: nonzero; opacity: 1;" transform=" matrix(1 0 0 1 0 0) " stroke-linecap="round" />
	<path d="M 46.355 68.257 c -3.222 0 -6.451 -0.641 -9.511 -1.931 c -6.022 -2.539 -10.694 -7.271 -13.157 -13.325 c -2.463 -6.053 -2.421 -12.703 0.118 -18.725 c 4.194 -9.947 14.599 -16.038 25.321 -14.81 c 0.548 0.063 0.942 0.559 0.879 1.107 s -0.56 0.942 -1.107 0.88 c -9.842 -1.134 -19.399 4.465 -23.25 13.6 c -2.332 5.529 -2.37 11.636 -0.108 17.195 c 2.261 5.559 6.552 9.903 12.082 12.234 c 6.252 2.639 13.282 2.321 19.283 -0.867 c 0.49 -0.262 1.093 -0.075 1.353 0.413 s 0.074 1.094 -0.413 1.353 C 54.245 67.293 50.306 68.257 46.355 68.257 z" style="stroke: none; stroke-width: 1; stroke-dasharray: none; stroke-linecap: butt; stroke-linejoin: miter; stroke-miterlimit: 10; fill: rgb(248,204,29); fill-rule: nonzero; opacity: 1;" transform=" matrix(1 0 0 1 0 0) " stroke-linecap="round" />
	<path d="M 63.699 62.342 c -1.44 0 -2.817 -0.83 -3.443 -2.228 c -0.41 -0.917 -0.439 -1.94 -0.081 -2.881 c 0.358 -0.939 1.062 -1.684 1.98 -2.095 c 1.896 -0.846 4.127 0.004 4.976 1.899 c 0.848 1.896 -0.004 4.127 -1.899 4.976 C 64.733 62.236 64.212 62.342 63.699 62.342 z M 63.69 56.811 c -0.24 0 -0.485 0.05 -0.719 0.154 c -0.431 0.192 -0.76 0.541 -0.928 0.982 c -0.169 0.44 -0.155 0.92 0.038 1.35 c 0.397 0.889 1.44 1.29 2.333 0.891 c 0.889 -0.397 1.288 -1.444 0.89 -2.333 C 65.012 57.2 64.366 56.811 63.69 56.811 z" style="stroke: none; stroke-width: 1; stroke-dasharray: none; stroke-linecap: butt; stroke-linejoin: miter; stroke-miterlimit: 10; fill: rgb(248,204,29); fill-rule: nonzero; opacity: 1;" transform=" matrix(1 0 0 1 0 0) " stroke-linecap="round" />
</g>
</svg>